<svg width="512" height="512" viewBox="0 0 512 512" fill="none" xmlns="http://www.w3.org/2000/svg">
<path d="M119 146L50.5 143.5L40.5 180.5L78 191.5L57 211.5L114.5 226L213.5 209.5L212.5 251L112 327L87.2098 396.5L144.5 450.5L279 472.007L397.5 427L441.5 338.5L456 309L460 266L444 243L417.5 217L345 277.291L288.5 283.5L312.5 171.5L260 67.5L229 87.1885L157.5 92L119 146Z" fill="#3F50E9"/>
<path fill-rule="evenodd" clip-rule="evenodd" d="M303.817 72.6126C305.359 71.7536 307.185 73.1199 306.652 74.8141C302.24 88.8587 292.431 101.848 285.858 109.333C284.733 110.615 285.542 112.703 287.23 112.89C303.69 114.707 316.032 120.323 322.91 124.805C324.441 125.802 323.726 128.007 321.909 128.152C314.441 128.746 304.144 130.367 297.757 133.847C297.056 134.229 296.874 135.136 297.311 135.808C297.542 136.163 297.911 136.393 298.328 136.452C306.773 137.64 320.578 143.079 331.336 158.279C332.475 159.888 330.738 161.894 328.912 161.176C323.778 159.156 317.221 157.02 311.231 156.103C309.75 155.876 308.669 157.385 309.22 158.79C309.483 159.46 309.738 160.13 309.986 160.798C310.107 161.125 310.306 161.413 310.569 161.641C319.177 169.119 328.978 182.718 330.466 203.007C330.51 203.604 329.322 203.862 329.044 203.333C327.387 200.193 324.492 196.261 319.956 192.695C318.653 191.67 316.856 192.752 316.941 194.416C318.875 232.132 301.644 263.529 291.301 277.884C290.184 279.435 291.59 281.638 293.438 281.19C376.574 261.068 414.201 200.098 424.418 166.964C424.973 165.163 427.471 164.944 428.237 166.664C435.742 183.51 440.087 201.028 442.253 218.031C442.388 219.093 443.873 219.266 444.233 218.259L449.393 203.807C449.949 202.251 451.993 202.015 452.78 203.466C458.203 213.463 460.76 226.372 461.705 234.866C461.828 235.967 463.475 236.185 463.842 235.141L466.789 226.766C467.374 225.102 469.634 224.971 470.372 226.572C496.88 284.062 462.472 339.19 441.417 359.974L441.173 360.099C434.752 403.161 417.072 426.766 375.683 452.395C342.143 473.164 296.837 478.01 278.376 477.837C229.722 483.895 124.445 480.848 92.5609 420.203C60.6774 359.558 102.74 312.205 127.757 296.109C142.414 287.267 154.209 280.501 163.733 275.038L163.734 275.038C201.561 253.341 206 249.557 205 223.336C189.5 226.362 176.366 225.3 166.059 222.38C134.658 228.091 69.1658 235.776 58.3999 220.822C47.634 205.869 57.3647 199.707 63.5758 198.496C57.8823 199.534 44.1144 195.484 34.5908 170.977C25.0671 146.47 44.0799 141.381 54.7768 141.901C78.0683 145.016 105.846 139.997 113.265 134.632C132.726 96.8323 162.436 84.9594 174.858 83.7479C228.125 85.2856 267.471 52.8467 283.707 32.7751C284.905 31.2946 287.34 32.0668 287.347 33.9773C287.451 60.6256 277.839 78.0901 272.682 83.7479C282.422 83.399 295.643 77.1635 303.817 72.6126ZM425.645 292.135C435.583 305.241 440.138 327.173 441.173 336.5C456.603 313.863 458.26 290.943 459.42 266.812C453.973 284 448.554 292.678 436.5 306C441.53 291.517 444.346 274.268 443.997 243.668L425.645 292.135ZM246.803 178.765C242.149 201.361 229.928 213.749 215.832 219.959C222.5 248.549 205.279 266.834 192.5 275.038C122.108 307.749 105.827 345.365 101 359.974C90.8207 390.781 99.325 453.213 231 462.351C362.675 471.49 412.604 405.319 421.231 370.358C431.583 344.189 421.058 319.647 414.502 310.648C411.534 320.325 406.491 333.151 399.5 346.496C393.5 359.072 380.5 374 366.5 380.5C383.5 376.5 383.5 376.5 383.5 376.5C370.5 392.5 348.607 410.747 323.924 414.492C274.649 421.969 254.394 401.338 250.426 390.088C289.763 418.749 336.864 396.146 355.497 381.262C323.613 388.323 300.115 380.05 292.351 375.031C354.876 378.354 387.07 342.493 395.351 324.147C366.366 344.916 326.684 343.186 310.467 339.724C405.289 330.586 421.058 254.226 417.09 217.188C398.975 257.687 339.969 291.956 287.175 302.859C244.94 311.582 227.479 336.263 224.029 347.512C219.476 319.54 239.756 301.57 260.615 291.549C329.753 204.683 290.634 144.255 261.295 123.209C269.991 114.07 273.89 102.786 274.753 98.2861C264.815 106.594 239.557 114.382 227.652 116.978C248.77 102.855 257.845 78.5557 259.743 68.1712C235.312 92.6785 192.973 99.4976 174.858 98.2861C148.771 100.363 128.764 130.94 121 146.69C105.472 153.959 89.7991 155.727 81 155.727C57.7085 151.573 47.5352 154.608 46.5 159.801C46.5 181.132 56.8747 184.505 68.3621 188.24C69.1776 188.505 69.9987 188.772 70.8221 189.047C80.7598 192.37 125.5 191.803 144.32 183.438C134.798 195.568 109.069 198.445 88.6001 200.734C83.6596 201.286 79.0256 201.805 75 202.41C69.9966 204.141 62.0623 207.614 72 214.26C81.9377 220.906 140.36 214.553 169 210.226C207.509 220.61 236.969 193.996 246.803 178.765Z" fill="#14141D"/>
</svg>
